<svg width="30" height="30" viewBox="0 0 30 30" fill="none" xmlns="http://www.w3.org/2000/svg">
<g clip-path="url(#clip0_3063_2000)">
<path d="M25.0771 23.3719C26.4231 21.752 27.3592 19.8318 27.8062 17.7736C28.2532 15.7155 28.1979 13.58 27.6451 11.5477C27.0922 9.51545 26.0581 7.64621 24.6301 6.09811C23.2022 4.55001 21.4224 3.36858 19.4413 2.65375C17.4602 1.93892 15.336 1.71172 13.2486 1.99137C11.1611 2.27102 9.17169 3.04929 7.4486 4.26034C5.7255 5.4714 4.31941 7.07963 3.34926 8.949C2.37911 10.8184 1.87343 12.8939 1.875 15C1.87574 18.0621 2.95482 21.0261 4.92291 23.3719L4.90416 23.3874C4.96978 23.4667 5.04478 23.5343 5.11247 23.6117C5.19685 23.7088 5.28722 23.7992 5.37497 23.8937C5.63747 24.178 5.90691 24.4517 6.1906 24.7093C6.27638 24.7872 6.36535 24.8604 6.4531 24.9359C6.7531 25.1946 7.06097 25.4395 7.38122 25.6684C7.42257 25.6976 7.45922 25.7333 7.50085 25.7627V25.7508C9.69657 27.2959 12.3159 28.1252 15.0008 28.1252C17.6857 28.1252 20.3051 27.2959 22.5008 25.7508V25.7625C22.5425 25.7332 22.5791 25.6974 22.6205 25.6682C22.9403 25.4393 23.2486 25.1944 23.5486 24.9357C23.6363 24.8607 23.7253 24.787 23.8111 24.7091C24.0947 24.4514 24.3642 24.1778 24.6267 23.8935C24.7142 23.7992 24.8043 23.7086 24.8892 23.6115C24.9566 23.5342 25.0319 23.4665 25.0975 23.3873L25.0771 23.3719ZM15 7.5C15.8344 7.5 16.65 7.74743 17.3438 8.21099C18.0376 8.67455 18.5783 9.33343 18.8976 10.1043C19.2169 10.8752 19.3005 11.7234 19.1377 12.5418C18.9749 13.3601 18.5731 14.1119 17.9831 14.7019C17.3931 15.2919 16.6414 15.6937 15.823 15.8564C15.0047 16.0192 14.1564 15.9357 13.3856 15.6164C12.6147 15.2971 11.9558 14.7563 11.4922 14.0626C11.0287 13.3688 10.7813 12.5531 10.7813 11.7188C10.7813 10.5999 11.2257 9.52681 12.0169 8.73564C12.8081 7.94448 13.8811 7.5 15 7.5ZM7.50666 23.3719C7.52285 22.1409 8.02306 20.9658 8.89907 20.1008C9.77508 19.2359 10.9564 18.7506 12.1875 18.75H17.8125C19.0436 18.7506 20.2249 19.2359 21.1009 20.1009C21.9769 20.9658 22.4771 22.1409 22.4933 23.3719C20.4373 25.2246 17.7677 26.25 15 26.25C12.2323 26.25 9.56273 25.2246 7.50666 23.3719Z" fill="#C3C3C3"/>
</g>
<defs>
<clipPath id="clip0_3063_2000">
<rect width="30" height="30" fill="white"/>
</clipPath>
</defs>
</svg>
