<svg width="17" height="18" viewBox="0 0 17 18" fill="none" xmlns="http://www.w3.org/2000/svg">
<g clip-path="url(#clip0_459_3824)">
<path d="M8.925 1.05829C8.80239 0.966335 8.65326 0.916626 8.5 0.916626C8.34674 0.916626 8.19761 0.966335 8.075 1.05829C7.77991 1.28438 7.50778 1.53895 7.26254 1.81833C6.89208 2.23554 6.375 2.93892 6.375 3.74996C6.375 4.31354 6.59888 4.85405 6.9974 5.25256C7.39591 5.65108 7.93641 5.87496 8.5 5.87496H4.25C3.68641 5.87496 3.14591 6.09884 2.7474 6.49736C2.34888 6.89587 2.125 7.43637 2.125 7.99996V9.41663C2.125 10.2921 3.12446 10.7922 3.825 10.2666L4.29746 9.91246C4.42007 9.8205 4.5692 9.77079 4.72246 9.77079C4.87572 9.77079 5.02485 9.8205 5.14746 9.91246L5.33587 10.0541C5.7037 10.33 6.15109 10.4791 6.61088 10.4791C7.07066 10.4791 7.51805 10.33 7.88588 10.0541L8.075 9.91246C8.19761 9.8205 8.34674 9.77079 8.5 9.77079C8.65326 9.77079 8.80239 9.8205 8.925 9.91246L9.11412 10.0541C9.48195 10.33 9.92934 10.4791 10.3891 10.4791C10.8489 10.4791 11.2963 10.33 11.6641 10.0541L11.8525 9.91246C11.9752 9.8205 12.1243 9.77079 12.2775 9.77079C12.4308 9.77079 12.5799 9.8205 12.7025 9.91246L13.175 10.2666C13.8755 10.7922 14.875 10.2921 14.875 9.41663V7.99996C14.875 7.43637 14.6511 6.89587 14.2526 6.49736C13.8541 6.09884 13.3136 5.87496 12.75 5.87496H8.5C9.06358 5.87496 9.60409 5.65108 10.0026 5.25256C10.4011 4.85405 10.625 4.31354 10.625 3.74996C10.625 2.93892 10.1079 2.23554 9.73746 1.81833C9.49237 1.54208 9.22038 1.28 8.925 1.05829ZM2.83333 11.8356V13.6666C2.83333 14.0423 2.98259 14.4027 3.24827 14.6684C3.51394 14.934 3.87428 15.0833 4.25 15.0833H12.75C13.1257 15.0833 13.4861 14.934 13.7517 14.6684C14.0174 14.4027 14.1667 14.0423 14.1667 13.6666V11.8356C14.0018 11.8951 13.8247 11.9124 13.6514 11.8858C13.4782 11.8592 13.3144 11.7896 13.175 11.6833L12.7025 11.3291C12.5799 11.2372 12.4308 11.1875 12.2775 11.1875C12.1243 11.1875 11.9752 11.2372 11.8525 11.3291L11.6641 11.4708C11.2963 11.7467 10.8489 11.8958 10.3891 11.8958C9.92934 11.8958 9.48195 11.7467 9.11412 11.4708L8.925 11.3291C8.80239 11.2372 8.65326 11.1875 8.5 11.1875C8.34674 11.1875 8.19761 11.2372 8.075 11.3291L7.88588 11.4708C7.51805 11.7467 7.07066 11.8958 6.61088 11.8958C6.15109 11.8958 5.7037 11.7467 5.33587 11.4708L5.14746 11.3291C5.02485 11.2372 4.87572 11.1875 4.72246 11.1875C4.5692 11.1875 4.42007 11.2372 4.29746 11.3291L3.825 11.6833C3.68561 11.7896 3.52181 11.8592 3.34857 11.8858C3.17533 11.9124 2.99818 11.8951 2.83333 11.8356Z" fill="#676767"/>
</g>
<defs>
<clipPath id="clip0_459_3824">
<rect width="17" height="18" fill="white"/>
</clipPath>
</defs>
</svg>
