<svg width="24" height="24" viewBox="0 0 24 24" fill="none" xmlns="http://www.w3.org/2000/svg">
<path fill-rule="evenodd" clip-rule="evenodd" d="M9.175 3.41C9.17553 2.96947 9.35094 2.54717 9.66267 2.2359C9.97441 1.92464 10.397 1.74987 10.8375 1.75C10.9345 1.75 11.0395 1.758 11.15 1.781C11.597 1.874 13.5215 2.3235 16.051 3.6385C17.0655 4.166 17.7825 4.606 18.2895 4.96C18.802 5.3175 19.132 5.857 19.132 6.4685C19.132 7.0805 18.802 7.62 18.2895 7.978C17.7825 8.3315 17.0655 8.7715 16.051 9.299C14.6205 10.043 13.3835 10.5095 12.4985 10.7915C12.1536 10.902 11.8051 11.0007 11.4535 11.0875C11.3342 11.1165 11.2407 11.1378 11.173 11.1515V14.6135C11.8347 14.7894 12.4383 15.1366 12.923 15.6201C13.4077 16.1036 13.7564 16.7063 13.934 17.3675H17.4155C17.429 17.0305 17.4485 16.742 17.472 16.495C17.526 15.924 17.828 15.432 18.3195 15.173C18.8045 14.9175 19.373 14.94 19.8705 15.183C20.4412 15.465 20.9969 15.7762 21.5355 16.1155C22.0725 16.4505 22.4805 16.7405 22.792 16.987C23.2285 17.333 23.4995 17.827 23.4995 18.375C23.4995 18.923 23.2285 19.4175 22.792 19.7635C22.39 20.0775 21.9705 20.3685 21.5355 20.635C20.9969 20.9741 20.4412 21.2852 19.8705 21.567C19.373 21.81 18.804 21.833 18.3195 21.5775C17.828 21.3185 17.526 20.8265 17.472 20.2555C17.4448 19.9601 17.4258 19.664 17.415 19.3675H13.935C13.713 20.1951 13.224 20.9263 12.544 21.4477C11.864 21.9691 11.0309 22.2514 10.174 22.251C9.31703 22.2515 8.48384 21.9692 7.80372 21.4478C7.12359 20.9265 6.63456 20.1952 6.4125 19.3675H1.5C1.23478 19.3675 0.98043 19.2621 0.792893 19.0746C0.605357 18.8871 0.5 18.6327 0.5 18.3675C0.5 18.1023 0.605357 17.8479 0.792893 17.6604C0.98043 17.4729 1.23478 17.3675 1.5 17.3675H6.4125C6.59012 16.7062 6.93891 16.1035 7.42373 15.62C7.90855 15.1365 8.51225 14.7893 9.174 14.6135V9.235C9.174 9.21767 9.17433 9.2005 9.175 9.1835V3.41ZM8.282 18.367C8.28252 18.1191 8.33187 17.8738 8.42721 17.645C8.52255 17.4162 8.66202 17.2084 8.83766 17.0335C9.0133 16.8586 9.22168 16.72 9.45088 16.6256C9.68008 16.5313 9.92563 16.483 10.1735 16.4835C10.674 16.4826 11.1544 16.6805 11.509 17.0337C11.8636 17.3869 12.0634 17.8665 12.0645 18.367C12.0634 18.8675 11.8636 19.3471 11.509 19.7003C11.1544 20.0535 10.674 20.2514 10.1735 20.2505C9.92563 20.251 9.68008 20.2027 9.45088 20.1084C9.22168 20.014 9.0133 19.8754 8.83766 19.7005C8.66202 19.5256 8.52255 19.3178 8.42721 19.089C8.33187 18.8602 8.28252 18.6149 8.282 18.367Z" fill="#E57610"/>
</svg>
