<svg width="13" height="9" viewBox="0 0 13 9" fill="none" xmlns="http://www.w3.org/2000/svg">
<path d="M5.78906 5.28852L3.07405 2.85279C2.84966 2.63081 2.57522 2.52008 2.25075 2.52008C1.92632 2.52008 1.65201 2.63084 1.42765 2.85279L1.07915 3.19698C0.854855 3.41861 0.742676 3.68986 0.742676 4.01039C0.742676 4.33092 0.854855 4.60205 1.07915 4.82403L4.96121 8.4222C5.1856 8.64399 5.46001 8.75488 5.78451 8.75488C6.109 8.75488 6.38319 8.64402 6.60768 8.4222L12.5293 2.56117C12.7537 2.33919 12.8659 2.06809 12.8659 1.74753C12.8659 1.42697 12.7537 1.15575 12.5293 0.934118L12.181 0.589932C11.9567 0.367954 11.6838 0.257217 11.3623 0.257217C11.0409 0.257217 10.765 0.367986 10.5346 0.589932L5.78906 5.28852Z" fill="white"/>
</svg>
