<svg width="15" height="15" viewBox="0 0 15 15" fill="none" xmlns="http://www.w3.org/2000/svg">
<g clip-path="url(#clip0_1057_31410)">
<path d="M5.58208 15C5.09317 15 4.6301 14.7825 4.33338 14.4074L0.317515 9.34876C0.193356 9.19253 0.102712 9.01451 0.050765 8.82487C-0.00118198 8.63522 -0.0134133 8.43767 0.0147702 8.24352C0.0429537 8.04937 0.110999 7.86241 0.215017 7.69335C0.319035 7.52428 0.456985 7.37641 0.620981 7.25821C0.784918 7.13951 0.971814 7.05282 1.17096 7.00311C1.3701 6.9534 1.57758 6.94164 1.7815 6.96852C1.98542 6.9954 2.18177 7.06037 2.3593 7.15973C2.53682 7.25909 2.69204 7.39087 2.81605 7.54752L5.45845 10.8735L12.1021 0.702595C12.3224 0.366777 12.6735 0.127984 13.0782 0.0385939C13.483 -0.0507962 13.9084 0.0165157 14.2612 0.225765C14.9951 0.660805 15.2211 1.58232 14.7625 2.2831L6.91284 14.2949C6.77884 14.5009 6.59414 14.6726 6.37477 14.7951C6.1554 14.9176 5.90799 14.9872 5.65402 14.9979C5.62929 15 5.60681 15 5.58208 15Z" fill="#17F247"/>
</g>
<defs>
<clipPath id="clip0_1057_31410">
<rect width="15" height="15" fill="white"/>
</clipPath>
</defs>
</svg>
