<svg width="18" height="18" viewBox="0 0 18 18" fill="none" xmlns="http://www.w3.org/2000/svg">
<g clip-path="url(#clip0_442_5471)">
<path d="M16.9534 3.13969C17.5314 2.56169 17.5314 1.62456 16.9534 1.04656C16.3754 0.468562 15.4383 0.468562 14.8603 1.04656L9 6.90687L3.13969 1.04656C2.56169 0.468563 1.62456 0.468562 1.04656 1.04656C0.468562 1.62456 0.468562 2.56169 1.04656 3.13969L6.90687 9L1.04656 14.8603C0.468563 15.4383 0.468562 16.3754 1.04656 16.9534C1.62456 17.5314 2.56169 17.5314 3.13969 16.9534L9 11.0931L14.8603 16.9534C15.4383 17.5314 16.3754 17.5314 16.9534 16.9534C17.5314 16.3754 17.5314 15.4383 16.9534 14.8603L11.0931 9L16.9534 3.13969Z" fill="#DADADA"/>
</g>
<defs>
<clipPath id="clip0_442_5471">
<rect width="18" height="18" fill="white"/>
</clipPath>
</defs>
</svg>
