<svg width="22" height="22" viewBox="0 0 22 22" fill="none" xmlns="http://www.w3.org/2000/svg">
<path d="M18.5625 2.40625H7.5625C7.289 2.40625 7.02669 2.5149 6.8333 2.7083C6.6399 2.90169 6.53125 3.164 6.53125 3.4375V6.53125H3.4375C3.164 6.53125 2.90169 6.6399 2.7083 6.8333C2.5149 7.02669 2.40625 7.289 2.40625 7.5625V18.5625C2.40625 18.836 2.5149 19.0983 2.7083 19.2917C2.90169 19.4851 3.164 19.5938 3.4375 19.5938H14.4375C14.711 19.5938 14.9733 19.4851 15.1667 19.2917C15.3601 19.0983 15.4688 18.836 15.4688 18.5625V15.4688H18.5625C18.836 15.4688 19.0983 15.3601 19.2917 15.1667C19.4851 14.9733 19.5938 14.711 19.5938 14.4375V3.4375C19.5938 3.164 19.4851 2.90169 19.2917 2.7083C19.0983 2.5149 18.836 2.40625 18.5625 2.40625ZM13.4062 17.5312H4.46875V8.59375H13.4062V17.5312ZM17.5312 13.4062H15.4688V7.5625C15.4688 7.289 15.3601 7.02669 15.1667 6.8333C14.9733 6.6399 14.711 6.53125 14.4375 6.53125H8.59375V4.46875H17.5312V13.4062Z" fill="#6B6B6E"/>
</svg>
