<svg width="26" height="26" viewBox="0 0 26 26" fill="none" xmlns="http://www.w3.org/2000/svg">
<circle cx="13" cy="13" r="10.5" fill="#9F1A35" stroke="#FF0000"/>
<path d="M9.06578 18C8.48684 18 8 17.4999 8 16.9341C8 16.6315 8.14473 16.3947 8.32895 16.2105L11.5132 12.9999L8.32895 9.77626C8.14473 9.59212 8 9.35521 8 9.05262C8 8.48685 8.48684 8.02632 9.06578 8.02632C9.34211 8.02632 9.55264 8.1579 9.7763 8.34211L12.9869 11.5395L16.2237 8.32895C16.4474 8.13158 16.671 8 16.9342 8C17.5264 8 18 8.47369 18 9.05262C18 9.34207 17.8684 9.53946 17.6711 9.76313L14.4737 12.9999L17.658 16.1973C17.8421 16.3947 17.9869 16.6184 17.9869 16.9341C17.9869 17.4999 17.5 18 16.9342 18C16.6316 18 16.3948 17.842 16.1974 17.671L12.9869 14.4605L9.78944 17.671C9.59216 17.8553 9.34211 18 9.06578 18Z" fill="white"/>
</svg>
