<svg width="15" height="15" viewBox="0 0 15 15" fill="none" xmlns="http://www.w3.org/2000/svg">
<g clip-path="url(#clip0_1057_31454)">
<path d="M13.967 14.0195C13.6323 14.322 13.1784 14.492 12.7051 14.492C12.2318 14.492 11.7779 14.322 11.4432 14.0195L7.50074 9.94564L3.55824 14.0181C3.39302 14.1699 3.19619 14.2907 2.9791 14.3734C2.762 14.4561 2.52894 14.4991 2.29336 14.5C2.05778 14.5009 1.82435 14.4595 1.60651 14.3784C1.38868 14.2973 1.19077 14.178 1.02419 14.0274C0.857606 13.8768 0.725655 13.6979 0.635946 13.501C0.546236 13.3041 0.500543 13.093 0.501502 12.88C0.502461 12.6671 0.550054 12.4564 0.641534 12.2601C0.733015 12.0638 0.866574 11.8859 1.03451 11.7365L5.13614 7.50135L1.03302 3.26349C0.865087 3.11412 0.731528 2.93617 0.640047 2.73991C0.548567 2.54364 0.500974 2.33294 0.500015 2.11997C0.499056 1.90699 0.544749 1.69595 0.634459 1.49901C0.724168 1.30208 0.856119 1.12315 1.0227 0.972553C1.18928 0.821953 1.3872 0.702662 1.60503 0.621559C1.82286 0.540456 2.0563 0.499146 2.29188 0.500013C2.52746 0.500881 2.76051 0.543907 2.97761 0.626611C3.1947 0.709315 3.39154 0.830061 3.55676 0.981881L7.50074 5.05705L11.4432 0.981881C11.6085 0.830061 11.8053 0.709315 12.0224 0.626611C12.2395 0.543907 12.4725 0.500881 12.7081 0.500013C12.9437 0.499146 13.1771 0.540456 13.395 0.621559C13.6128 0.702662 13.8107 0.821953 13.9773 0.972553C14.1439 1.12315 14.2758 1.30208 14.3655 1.49901C14.4553 1.69595 14.5009 1.90699 14.5 2.11997C14.499 2.33294 14.4514 2.54364 14.36 2.73991C14.2685 2.93617 14.1349 3.11412 13.967 3.26349L9.86535 7.50135L13.967 11.7365C14.1329 11.8863 14.2645 12.0643 14.3543 12.2602C14.4442 12.456 14.4904 12.666 14.4904 12.878C14.4904 13.09 14.4442 13.3 14.3543 13.4958C14.2645 13.6917 14.1329 13.8696 13.967 14.0195Z" fill="#E51039"/>
</g>
<defs>
<clipPath id="clip0_1057_31454">
<rect width="15" height="15" fill="white"/>
</clipPath>
</defs>
</svg>
