<svg width="26" height="26" viewBox="0 0 26 26" fill="none" xmlns="http://www.w3.org/2000/svg">
<circle cx="13" cy="13" r="10.5" fill="#1AAA42" stroke="#17F247"/>
<path d="M11.8535 18C11.4926 18 11.1953 17.8603 10.9193 17.4844L8.25478 14.1761C8.09554 13.9613 8 13.7143 8 13.478C8 12.9839 8.37155 12.5864 8.85987 12.5864C9.15712 12.5864 9.39066 12.6939 9.65605 13.0483L11.811 15.8625L16.344 8.49409C16.5456 8.16112 16.8216 8 17.1083 8C17.5647 8 18 8.32223 18 8.81632C18 9.06337 17.8726 9.31042 17.7346 9.52524L12.7452 17.4844C12.5223 17.8281 12.2144 18 11.8535 18Z" fill="white"/>
</svg>
