<svg width="17" height="15" viewBox="0 0 17 15" fill="none" xmlns="http://www.w3.org/2000/svg">
<g clip-path="url(#clip0_459_3829)">
<path fill-rule="evenodd" clip-rule="evenodd" d="M10.5111 2.16675C11.0093 2.16675 11.5356 2.34008 12.0178 2.53141L12.3707 2.67541C13.2144 3.02741 13.6885 3.76608 14.0562 4.57741C14.6528 5.89408 15.0673 7.64941 15.2106 8.98408C15.279 9.61741 15.2957 10.2547 15.1731 10.6834C15.0412 11.1414 14.5926 11.4654 14.1566 11.7201L13.941 11.8421L13.7173 11.9661C13.6013 12.0301 13.4841 12.0932 13.3658 12.1554L13.0162 12.3354L12.5361 12.5734L12.1497 12.7627C12.0708 12.8051 11.9841 12.8313 11.8948 12.8397C11.8055 12.8481 11.7154 12.8385 11.6299 12.8116C11.5444 12.7847 11.4652 12.7409 11.397 12.683C11.3288 12.625 11.273 12.554 11.2329 12.4741C11.1928 12.3942 11.1692 12.3072 11.1635 12.2181C11.1579 12.129 11.1702 12.0396 11.1999 11.9554C11.2296 11.8711 11.276 11.7937 11.3363 11.7276C11.3966 11.6615 11.4696 11.6082 11.551 11.5707L12.08 11.3107L11.6917 10.9047C10.7608 11.2847 9.66463 11.5001 8.50011 11.5001C7.3356 11.5001 6.23939 11.2854 5.30858 10.9047L4.92018 11.3101L5.45121 11.5701C5.52992 11.6092 5.60011 11.6634 5.65778 11.7295C5.71545 11.7957 5.75947 11.8725 5.78733 11.9556C5.81519 12.0386 5.82634 12.1264 5.82014 12.2137C5.81394 12.3011 5.79052 12.3864 5.75121 12.4647C5.7119 12.5431 5.65748 12.613 5.59104 12.6704C5.52461 12.7278 5.44746 12.7716 5.36401 12.7994C5.19548 12.8554 5.0115 12.8425 4.85255 12.7634L4.48826 12.5834C4.21906 12.4501 3.94919 12.3181 3.68267 12.1787L3.06124 11.8421L2.84628 11.7201C2.41034 11.4654 1.96101 11.1414 1.82976 10.6834C1.70654 10.2547 1.72395 9.61808 1.79159 8.98342C1.93489 7.64942 2.3494 5.89408 2.94606 4.57741C3.3137 3.76608 3.78781 3.02741 4.63156 2.67541C5.19139 2.44208 5.86974 2.16675 6.49117 2.16675C6.89497 2.16675 7.21238 2.53675 7.15412 2.93141C7.59984 2.8666 8.04967 2.83385 8.50011 2.83341C8.96284 2.83341 9.41485 2.86675 9.84878 2.93208C9.83588 2.83741 9.84332 2.74108 9.87061 2.64949C9.89791 2.55789 9.94443 2.47311 10.0071 2.40076C10.0698 2.3284 10.1472 2.27013 10.2342 2.22978C10.3212 2.18944 10.4151 2.16796 10.5111 2.16675ZM6.32376 6.50008C6.01296 6.50008 5.71489 6.623 5.49512 6.84179C5.27534 7.06058 5.15188 7.35733 5.15188 7.66675C5.15188 7.97617 5.27534 8.27291 5.49512 8.49171C5.71489 8.7105 6.01296 8.83342 6.32376 8.83342C6.63456 8.83342 6.93264 8.7105 7.15241 8.49171C7.37218 8.27291 7.49564 7.97617 7.49564 7.66675C7.49564 7.35733 7.37218 7.06058 7.15241 6.84179C6.93264 6.623 6.63456 6.50008 6.32376 6.50008ZM10.6765 6.50008C10.3657 6.50008 10.0676 6.623 9.84782 6.84179C9.62805 7.06058 9.50459 7.35733 9.50459 7.66675C9.50459 7.97617 9.62805 8.27291 9.84782 8.49171C10.0676 8.7105 10.3657 8.83342 10.6765 8.83342C10.9873 8.83342 11.2853 8.7105 11.5051 8.49171C11.7249 8.27291 11.8484 7.97617 11.8484 7.66675C11.8484 7.35733 11.7249 7.06058 11.5051 6.84179C11.2853 6.623 10.9873 6.50008 10.6765 6.50008Z" fill="#F4F4F4"/>
</g>
<defs>
<clipPath id="clip0_459_3829">
<rect width="17" height="14" fill="white" transform="translate(0 0.5)"/>
</clipPath>
</defs>
</svg>
