<svg width="24" height="24" viewBox="0 0 24 24" fill="none" xmlns="http://www.w3.org/2000/svg">
<path d="M4.70695 3.29292C4.51835 3.11076 4.26575 3.00997 4.00355 3.01224C3.74136 3.01452 3.49054 3.11969 3.30514 3.3051C3.11973 3.49051 3.01456 3.74132 3.01228 4.00352C3.01 4.26571 3.1108 4.51832 3.29295 4.70692L5.71695 7.13092C4.28695 8.20692 3.03895 9.68492 2.10595 11.5529C2.0366 11.6917 2.00049 11.8448 2.00049 11.9999C2.00049 12.1551 2.0366 12.3081 2.10595 12.4469C4.26395 16.7639 8.09595 18.9999 12 18.9999C13.555 18.9999 15.1 18.6449 16.53 17.9449L19.293 20.7069C19.4816 20.8891 19.7342 20.9899 19.9964 20.9876C20.2586 20.9853 20.5094 20.8801 20.6948 20.6947C20.8802 20.5093 20.9853 20.2585 20.9876 19.9963C20.9899 19.7341 20.8891 19.4815 20.707 19.2929L4.70695 3.29292ZM15.014 16.4279C14.034 16.8109 13.014 16.9999 12 16.9999C9.03095 16.9999 5.99795 15.3799 4.12995 11.9999C4.94695 10.5209 5.98795 9.37992 7.14795 8.56292L9.29195 10.7069C9.02404 11.2669 8.93642 11.8961 9.04117 12.508C9.14592 13.1198 9.43789 13.6841 9.87682 14.123C10.3158 14.562 10.88 14.854 11.4919 14.9587C12.1037 15.0635 12.733 14.9758 13.293 14.7079L15.014 16.4279ZM18.552 13.8959C19.035 13.3399 19.478 12.7089 19.87 11.9999C18.002 8.61992 14.97 6.99992 12 6.99992C11.888 6.99992 11.776 7.00225 11.664 7.00692L9.87895 5.22292C10.5762 5.07467 11.2871 4.99993 12 4.99992C15.903 4.99992 19.736 7.23592 21.894 11.5529C21.9633 11.6917 21.9994 11.8448 21.9994 11.9999C21.9994 12.1551 21.9633 12.3081 21.894 12.4469C21.3825 13.4832 20.7351 14.4467 19.969 15.3119L18.552 13.8959Z" fill="#A3A4A5"/>
</svg>
