<svg width="24" height="24" viewBox="0 0 24 24" fill="none" xmlns="http://www.w3.org/2000/svg">
<path d="M4.70695 3.29341C4.51835 3.11125 4.26575 3.01045 4.00355 3.01273C3.74136 3.01501 3.49054 3.12018 3.30514 3.30559C3.11973 3.491 3.01456 3.74181 3.01228 4.00401C3.01 4.2662 3.1108 4.5188 3.29295 4.70741L5.71695 7.13141C4.28695 8.20741 3.03895 9.68541 2.10595 11.5534C2.0366 11.6922 2.00049 11.8452 2.00049 12.0004C2.00049 12.1556 2.0366 12.3086 2.10595 12.4474C4.26395 16.7644 8.09595 19.0004 12 19.0004C13.555 19.0004 15.1 18.6454 16.53 17.9454L19.293 20.7074C19.4816 20.8896 19.7342 20.9904 19.9964 20.9881C20.2586 20.9858 20.5094 20.8806 20.6948 20.6952C20.8802 20.5098 20.9853 20.259 20.9876 19.9968C20.9899 19.7346 20.8891 19.482 20.707 19.2934L4.70695 3.29341ZM15.014 16.4284C14.034 16.8114 13.014 17.0004 12 17.0004C9.03095 17.0004 5.99795 15.3804 4.12995 12.0004C4.94695 10.5214 5.98795 9.38041 7.14795 8.56341L9.29195 10.7074C9.02404 11.2674 8.93642 11.8966 9.04117 12.5085C9.14592 13.1203 9.43789 13.6846 9.87682 14.1235C10.3158 14.5625 10.88 14.8544 11.4919 14.9592C12.1037 15.0639 12.733 14.9763 13.293 14.7084L15.014 16.4284ZM18.552 13.8964C19.035 13.3404 19.478 12.7094 19.87 12.0004C18.002 8.62041 14.97 7.00041 12 7.00041C11.888 7.00041 11.776 7.00274 11.664 7.00741L9.87895 5.22341C10.5762 5.07516 11.2871 5.00042 12 5.00041C15.903 5.00041 19.736 7.23641 21.894 11.5534C21.9633 11.6922 21.9994 11.8452 21.9994 12.0004C21.9994 12.1556 21.9633 12.3086 21.894 12.4474C21.3825 13.4837 20.7351 14.4472 19.969 15.3124L18.552 13.8964Z" fill="#6B6B6E"/>
</svg>
