<svg width="24" height="24" viewBox="0 0 24 24" fill="none" xmlns="http://www.w3.org/2000/svg">
<path d="M12.1869 23C10.7467 22.9999 9.33968 22.5483 8.14838 21.7037C6.95708 20.8592 6.0364 19.6606 5.50572 18.2635C4.97504 16.8664 4.85883 15.3352 5.17216 13.8683C5.48549 12.4015 6.21391 11.0667 7.26297 10.037C8.54905 8.774 11.7077 6.5 11.2286 1.5C16.9786 5.5 19.8536 9.5 14.1036 15.5C15.0619 15.5 16.4994 15.5 18.8952 13.03C19.154 13.803 19.3744 14.634 19.3744 15.5C19.3744 17.4891 18.6171 19.3968 17.2692 20.8033C15.9213 22.2098 14.0931 23 12.1869 23Z" fill="#E51039"/>
</svg>
