<svg width="24" height="24" viewBox="0 0 24 24" fill="none" xmlns="http://www.w3.org/2000/svg">
<path d="M9.367 19.0802L2.342 10.0402H6.178L9.367 19.0802ZM15.354 10.0402L11.994 20.9862L8.12 10.0392L15.354 10.0402ZM21.634 10.0402L14.425 19.3122L17.284 10.0392L21.634 10.0402ZM22 8.20616H17.296L15.866 3.01416H18.518C18.571 3.02565 18.6211 3.04779 18.6653 3.07925C18.7095 3.11071 18.7468 3.15083 18.775 3.19716L22 8.20616ZM15.403 8.20616H8.133L9.966 3.02616H13.961L15.403 8.20616ZM8.011 3.03916L6.191 8.20616H2L5.128 3.32016L5.225 3.21016C5.26942 3.15871 5.32386 3.11686 5.385 3.08716C5.44101 3.07498 5.49899 3.07498 5.555 3.08716L8.011 3.03916Z" fill="#0B7FEA"/>
</svg>
