<svg width="25" height="24" viewBox="0 0 25 24" fill="none" xmlns="http://www.w3.org/2000/svg">
<g clip-path="url(#clip0_4056_12378)">
<path d="M17.4123 3.48353C14.9746 1.06468 10.0066 0.79382 7.15834 3.66096C6.6912 4.11825 6.77563 4.64111 7.0932 4.95868C7.31734 5.19225 7.67177 5.29511 8.0082 5.19225C9.9972 4.56653 11.8371 4.51082 13.3032 5.59382L12.5189 7.68568C12.2198 8.49825 12.3788 9.06782 12.9111 9.60954L15.0681 11.776C15.4979 12.2148 15.9741 12.346 16.5998 12.196L18.1126 11.8505L18.8412 12.5791L18.7195 13.6437C18.6543 14.0825 18.7101 14.3534 19.0932 14.7365L19.8218 15.4368C20.2229 15.8384 20.7368 15.8757 21.1195 15.4925L24.1173 12.514C24.5001 12.1308 24.4439 11.6174 24.0518 11.2064L23.3326 10.4872C22.9683 10.1135 22.6791 10.039 22.2586 10.1045L21.1851 10.2352L20.4471 9.52553L20.8953 7.91925C21.0355 7.39639 20.8581 6.91039 20.2975 6.35925L17.4123 3.48353ZM1.45191 19.2001C0.547196 20.0032 0.500053 20.8437 1.34091 21.6935L2.82548 23.1691C3.65648 24.0001 4.52477 23.9534 5.31891 23.0568L14.3116 12.9618L11.5473 10.207L1.45191 19.2001Z" fill="#17F247"/>
</g>
<defs>
<clipPath id="clip0_4056_12378">
<rect width="24" height="24" fill="white" transform="translate(0.5)"/>
</clipPath>
</defs>
</svg>
