<svg width="18" height="18" viewBox="0 0 18 18" fill="none" xmlns="http://www.w3.org/2000/svg">
<path d="M9 1.125C7.44248 1.125 5.91992 1.58686 4.62489 2.45218C3.32985 3.31749 2.32049 4.5474 1.72445 5.98637C1.12841 7.42534 0.972461 9.00874 1.27632 10.5363C1.58018 12.0639 2.3302 13.4671 3.43154 14.5685C4.53288 15.6698 5.93607 16.4198 7.46367 16.7237C8.99127 17.0275 10.5747 16.8716 12.0136 16.2756C13.4526 15.6795 14.6825 14.6702 15.5478 13.3751C16.4131 12.0801 16.875 10.5575 16.875 9C16.875 6.91142 16.0453 4.90838 14.5685 3.43153C13.0916 1.95469 11.0886 1.125 9 1.125ZM9 14.0625C8.83313 14.0625 8.67 14.013 8.53124 13.9203C8.39249 13.8276 8.28434 13.6958 8.22048 13.5416C8.15662 13.3875 8.13991 13.2178 8.17247 13.0541C8.20502 12.8905 8.28538 12.7401 8.40338 12.6221C8.52138 12.5041 8.67172 12.4238 8.8354 12.3912C8.99907 12.3587 9.16872 12.3754 9.32289 12.4392C9.47707 12.5031 9.60884 12.6112 9.70156 12.75C9.79427 12.8887 9.84375 13.0519 9.84375 13.2188C9.84375 13.4425 9.75486 13.6571 9.59662 13.8154C9.43839 13.9736 9.22378 14.0625 9 14.0625ZM9.64238 9.70088V11.1077H8.37675V8.4375H9.57207C9.9266 8.4375 10.2666 8.29666 10.5173 8.04597C10.768 7.79527 10.9088 7.45526 10.9088 7.10072C10.9088 6.74618 10.768 6.40617 10.5173 6.15547C10.2666 5.90478 9.9266 5.76394 9.57207 5.76394H8.72832C8.37423 5.76468 8.03486 5.90567 7.78449 6.15604C7.53411 6.40642 7.39312 6.74579 7.39238 7.09987V7.45875H6.12675V7.09987C6.12794 6.41042 6.40247 5.74957 6.89015 5.26221C7.37783 4.77484 8.03886 4.50074 8.72832 4.5H9.57207C10.2548 4.50156 10.9095 4.77148 11.3949 5.25151C11.8804 5.73154 12.1577 6.38319 12.1669 7.06583C12.1761 7.74848 11.9166 8.40738 11.4443 8.90036C10.972 9.39334 10.3248 9.68086 9.64238 9.70088Z" fill="#47474B"/>
</svg>
