<svg width="25" height="24" viewBox="0 0 25 24" fill="none" xmlns="http://www.w3.org/2000/svg">
<path d="M12.5 2C10.6435 2 8.86301 2.7375 7.55025 4.05025C6.2375 5.36301 5.5 7.14348 5.5 9C5.5 11.38 6.69 13.47 8.5 14.74V17C8.5 17.2652 8.60536 17.5196 8.79289 17.7071C8.98043 17.8946 9.23478 18 9.5 18H15.5C15.7652 18 16.0196 17.8946 16.2071 17.7071C16.3946 17.5196 16.5 17.2652 16.5 17V14.74C18.31 13.47 19.5 11.38 19.5 9C19.5 7.14348 18.7625 5.36301 17.4497 4.05025C16.137 2.7375 14.3565 2 12.5 2ZM9.5 21C9.5 21.2652 9.60536 21.5196 9.79289 21.7071C9.98043 21.8946 10.2348 22 10.5 22H14.5C14.7652 22 15.0196 21.8946 15.2071 21.7071C15.3946 21.5196 15.5 21.2652 15.5 21V20H9.5V21Z" fill="#E57610"/>
</svg>
