<svg width="22" height="22" viewBox="0 0 22 22" fill="none" xmlns="http://www.w3.org/2000/svg">
<path fill-rule="evenodd" clip-rule="evenodd" d="M5.5 1.83337C4.77065 1.83337 4.07118 2.12311 3.55546 2.63883C3.03973 3.15456 2.75 3.85403 2.75 4.58337V17.4167C2.75 18.1461 3.03973 18.8455 3.55546 19.3613C4.07118 19.877 4.77065 20.1667 5.5 20.1667H11C11.7293 20.1667 12.4288 19.877 12.9445 19.3613C13.4603 18.8455 13.75 18.1461 13.75 17.4167V4.58337C13.75 3.85403 13.4603 3.15456 12.9445 2.63883C12.4288 2.12311 11.7293 1.83337 11 1.83337H5.5ZM14.9352 6.68529C15.1072 6.51344 15.3403 6.4169 15.5833 6.4169C15.8264 6.4169 16.0595 6.51344 16.2314 6.68529L19.8981 10.352C20.0699 10.5239 20.1665 10.757 20.1665 11C20.1665 11.2431 20.0699 11.4762 19.8981 11.6481L16.2314 15.3148C16.0585 15.4818 15.827 15.5742 15.5866 15.5721C15.3463 15.57 15.1164 15.4736 14.9464 15.3036C14.7765 15.1337 14.6801 14.9038 14.678 14.6634C14.6759 14.4231 14.7683 14.1915 14.9352 14.0186L17.0372 11.9167H9.16667C8.92355 11.9167 8.69039 11.8201 8.51849 11.6482C8.34658 11.4763 8.25 11.2432 8.25 11C8.25 10.7569 8.34658 10.5238 8.51849 10.3519C8.69039 10.18 8.92355 10.0834 9.16667 10.0834H17.0372L14.9352 7.98146C14.7634 7.80956 14.6669 7.57644 14.6669 7.33337C14.6669 7.09031 14.7634 6.85719 14.9352 6.68529Z" fill="#6B6B6E"/>
</svg>
