<svg width="24" height="24" viewBox="0 0 24 24" fill="none" xmlns="http://www.w3.org/2000/svg">
<path d="M16.704 4.61399C14.3383 5.83223 11.7813 6.63587 9.14402 6.98999C8.11682 7.12999 7.06882 7.19999 6.00002 7.19999C4.77797 7.19785 3.60112 7.66189 2.70942 8.49752C1.81771 9.33314 1.2783 10.4774 1.20117 11.697C1.12403 12.9166 1.51498 14.1197 2.29431 15.061C3.07363 16.0023 4.18264 16.611 5.39522 16.7628C5.75236 18.1516 6.26395 19.4959 6.92042 20.7708C7.39682 21.696 8.53082 21.9708 9.38042 21.4788L10.4208 20.8788C11.292 20.376 11.5488 19.2948 11.1264 18.4548C10.9272 18.0572 10.748 17.6556 10.5888 17.25C12.7488 17.6784 14.802 18.4056 16.704 19.386C17.5633 17.0184 18.002 14.5187 18 12C18 9.40559 17.5428 6.91799 16.704 4.61399ZM18.2916 3.71639C19.2911 6.36368 19.8022 9.1703 19.8 12C19.8 14.916 19.266 17.7096 18.2916 20.2848L18.2556 20.3772C18.2133 20.4876 18.1932 20.6052 18.1963 20.7234C18.1995 20.8416 18.2259 20.958 18.274 21.066C18.3712 21.284 18.5511 21.4545 18.774 21.54C18.997 21.6254 19.2447 21.6188 19.4628 21.5216C19.5708 21.4735 19.6682 21.4045 19.7495 21.3188C19.8309 21.233 19.8945 21.132 19.9368 21.0216C20.04 20.752 20.1388 20.48 20.2332 20.2056C20.9082 18.24 21.3375 16.1985 21.5112 14.1276C21.9 13.9246 22.2258 13.619 22.4531 13.2439C22.6805 12.8688 22.8007 12.4386 22.8007 12C22.8007 11.5614 22.6805 11.1312 22.4531 10.7561C22.2258 10.381 21.9 10.0753 21.5112 9.87239C21.3131 7.51182 20.783 5.19097 19.9368 2.97839C19.847 2.76179 19.6761 2.58881 19.4607 2.49626C19.2452 2.40372 19.0021 2.39893 18.7832 2.48291C18.5642 2.56689 18.3867 2.73301 18.2884 2.94591C18.1901 3.15881 18.1788 3.40167 18.2568 3.62279L18.2916 3.71639Z" fill="#17F247"/>
</svg>
