<svg width="19" height="20" viewBox="0 0 19 20" fill="none" xmlns="http://www.w3.org/2000/svg">
<path d="M15.1406 10.0195C15.1406 10.5114 15.5394 10.9102 16.0312 10.9102C16.5231 10.9102 16.9219 10.5114 16.9219 10.0195C16.9219 9.52765 16.5231 9.12891 16.0312 9.12891C15.5394 9.12891 15.1406 9.52765 15.1406 10.0195Z" stroke="#A3A4A5" stroke-width="1.5" stroke-linecap="round" stroke-linejoin="round"/>
<path d="M8.60937 10.0195C8.60937 10.5114 9.00812 10.9102 9.5 10.9102C9.99188 10.9102 10.3906 10.5114 10.3906 10.0195C10.3906 9.52765 9.99188 9.12891 9.5 9.12891C9.00812 9.12891 8.60937 9.52765 8.60937 10.0195Z" stroke="#A3A4A5" stroke-width="1.5" stroke-linecap="round" stroke-linejoin="round"/>
<path d="M2.07812 10.0195C2.07812 10.5114 2.47687 10.9102 2.96875 10.9102C3.46063 10.9102 3.85937 10.5114 3.85937 10.0195C3.85937 9.52765 3.46063 9.12891 2.96875 9.12891C2.47687 9.12891 2.07812 9.52765 2.07812 10.0195Z" stroke="#A3A4A5" stroke-width="1.5" stroke-linecap="round" stroke-linejoin="round"/>
</svg>
