<svg width="20" height="20" viewBox="0 0 20 20" fill="none" xmlns="http://www.w3.org/2000/svg">
<path d="M18.4664 10.8907C18.3462 10.7702 18.1954 10.6847 18.0302 10.6434C17.865 10.6021 17.6917 10.6066 17.5289 10.6563C16.3915 10.9997 15.1823 11.0281 14.03 10.7385C12.8777 10.449 11.8255 9.85226 10.9856 9.01198C10.1456 8.1717 9.54933 7.11932 9.2602 5.96693C8.97107 4.81454 8.99995 3.6053 9.34376 2.46803C9.39391 2.30514 9.39872 2.13166 9.35765 1.96625C9.31658 1.80083 9.2312 1.64974 9.11068 1.52923C8.99017 1.40871 8.83908 1.32333 8.67366 1.28226C8.50825 1.24119 8.33477 1.246 8.17188 1.29615C6.46125 1.82193 4.96007 2.87393 3.88204 4.3024C2.93931 5.55544 2.36441 7.0464 2.22185 8.60799C2.07929 10.1696 2.37472 11.74 3.07497 13.143C3.77523 14.546 4.85262 15.7262 6.18623 16.551C7.51985 17.3758 9.05693 17.8127 10.625 17.8126C12.4557 17.8179 14.2377 17.2226 15.6977 16.118C17.1254 15.0389 18.1763 13.5369 18.7008 11.8258C18.7501 11.6634 18.7543 11.4905 18.713 11.3258C18.6717 11.1611 18.5865 11.0107 18.4664 10.8907ZM14.5695 14.6204C13.3059 15.5717 11.7411 16.0346 10.1633 15.9239C8.58544 15.8132 7.10067 15.1363 5.98222 14.0178C4.86377 12.8994 4.18691 11.4146 4.0762 9.83678C3.9655 8.25894 4.42839 6.6942 5.37969 5.43053C5.88023 4.76835 6.5006 4.20601 7.2086 3.77271C7.19454 3.97271 7.18751 4.1735 7.18751 4.37506C7.18999 6.61206 8.07973 8.75673 9.66153 10.3385C11.2433 11.9203 13.388 12.8101 15.625 12.8126C15.8266 12.8126 16.0274 12.8055 16.2274 12.7915C15.7942 13.4996 15.2318 14.12 14.5695 14.6204Z" fill="#787879"/>
</svg>
