<svg width="24" height="24" viewBox="0 0 24 24" fill="none" xmlns="http://www.w3.org/2000/svg">
<g clip-path="url(#clip0_442_5849)">
<path fill-rule="evenodd" clip-rule="evenodd" d="M11.0318 2.06738C9.5329 2.27662 8.13241 2.96795 7.04994 4.05043C5.73718 5.36318 4.99969 7.14366 4.99969 9.00017V12.5282C4.99983 12.6833 4.96388 12.8363 4.89469 12.9752L3.17769 16.4082C3.09381 16.5759 3.05421 16.7623 3.06263 16.9496C3.07106 17.1369 3.12724 17.319 3.22583 17.4785C3.32442 17.638 3.46216 17.7697 3.62595 17.861C3.78975 17.9523 3.97416 18.0002 4.16169 18.0002H19.8377C20.0252 18.0002 20.2096 17.9523 20.3734 17.861C20.5372 17.7697 20.6749 17.638 20.7735 17.4785C20.8721 17.319 20.9283 17.1369 20.9367 16.9496C20.9452 16.7623 20.9056 16.5759 20.8217 16.4082L19.5437 13.8514C19.0442 13.949 18.5281 14.0002 18 14.0002C13.5817 14.0002 10 10.4185 10 6.00017C10 4.57068 10.3749 3.22876 11.0318 2.06738ZM10.2667 20.4501C10.7736 20.8083 11.379 21.0005 11.9997 21.0002C12.6203 21.0005 13.2258 20.8083 13.7327 20.4501C14.2395 20.0919 14.6228 19.5853 14.8297 19.0002H9.16969C9.37657 19.5853 9.75985 20.0919 10.2667 20.4501Z" fill="#C3C3C3"/>
<circle cx="18.5" cy="5.5" r="5.5" fill="#E51039"/>
</g>
<defs>
<clipPath id="clip0_442_5849">
<rect width="24" height="24" fill="white"/>
</clipPath>
</defs>
</svg>
