<svg width="15" height="15" viewBox="0 0 15 15" fill="none" xmlns="http://www.w3.org/2000/svg">
<path d="M8.82727 0.722169C8.89298 0.722051 8.95806 0.734885 9.0188 0.759937C9.07954 0.784989 9.13475 0.821767 9.18127 0.868169L14.1313 5.81817C14.225 5.91193 14.2777 6.03909 14.2777 6.17167C14.2777 6.30425 14.225 6.43141 14.1313 6.52517C13.6513 7.00517 13.0593 7.11317 12.6283 7.11317C12.4513 7.11317 12.2933 7.09517 12.1683 7.07417L9.03427 10.2082C9.11642 10.5407 9.16995 10.8796 9.19427 11.2212C9.24027 11.9232 9.16227 12.9082 8.47427 13.5962C8.38051 13.6899 8.25335 13.7426 8.12077 13.7426C7.98819 13.7426 7.86104 13.6899 7.76727 13.5962L4.93827 10.7682L1.75627 13.9502C1.56127 14.1452 0.537272 14.8522 0.342272 14.6572C0.147272 14.4622 0.854272 13.4372 1.04927 13.2432L4.23127 10.0612L1.40327 7.23217C1.30954 7.1384 1.25688 7.01125 1.25688 6.87867C1.25688 6.74609 1.30954 6.61893 1.40327 6.52517C2.09127 5.83717 3.07627 5.75817 3.77827 5.80517C4.11989 5.82949 4.45879 5.88302 4.79127 5.96517L7.92527 2.83217C7.90009 2.67976 7.88672 2.52564 7.88527 2.37117C7.88527 1.94117 7.99327 1.34917 8.47427 0.868169C8.56798 0.7747 8.69492 0.722197 8.82727 0.722169Z" fill="#B5B5B5"/>
</svg>
