<svg width="30" height="30" viewBox="0 0 30 30" fill="none" xmlns="http://www.w3.org/2000/svg">
<path d="M15 16C17.7614 16 20 13.7614 20 11C20 8.23858 17.7614 6 15 6C12.2386 6 10 8.23858 10 11C10 13.7614 12.2386 16 15 16Z" stroke="#787879" stroke-width="2.2" stroke-linecap="round" stroke-linejoin="round"/>
<path d="M20 24C21.6569 24 23.0509 22.6115 22.444 21.0698C22.0456 20.0575 21.441 19.1273 20.6569 18.3431C19.1566 16.8429 17.1217 16 15 16C12.8783 16 10.8434 16.8429 9.34315 18.3431C8.559 19.1273 7.95444 20.0575 7.55596 21.0698" stroke="#787879" stroke-width="2.2" stroke-linecap="round" stroke-linejoin="round"/>
</svg>
