<svg width="22" height="22" viewBox="0 0 22 22" fill="none" xmlns="http://www.w3.org/2000/svg">
<path d="M11 16C11.2833 16 11.521 15.904 11.713 15.712C11.905 15.52 12.0007 15.2827 12 15C11.9993 14.7173 11.9033 14.48 11.712 14.288C11.5207 14.096 11.2833 14 11 14C10.7167 14 10.4793 14.096 10.288 14.288C10.0967 14.48 10.0007 14.7173 10 15C9.99933 15.2827 10.0953 15.5203 10.288 15.713C10.4807 15.9057 10.718 16.0013 11 16ZM10 12H12V6H10V12ZM7.25 20L2 14.75V7.25L7.25 2H14.75L20 7.25V14.75L14.75 20H7.25ZM8.1 18H13.9L18 13.9V8.1L13.9 4H8.1L4 8.1V13.9L8.1 18Z" fill="#6B6B6E"/>
</svg>
