<svg width="20" height="18" viewBox="0 0 20 18" fill="none" xmlns="http://www.w3.org/2000/svg">
<path fill-rule="evenodd" clip-rule="evenodd" d="M9.60638 3.25C6.47688 3.25 3.93555 5.79569 3.93555 8.94333C3.93555 12.0884 6.47677 14.635 9.60721 14.635C12.7367 14.635 15.278 12.0885 15.278 8.9425C15.278 5.79657 12.7368 3.25 9.60638 3.25ZM2.68555 8.94333C2.68555 5.10931 5.78255 2 9.60638 2C13.431 2 16.528 5.11009 16.528 8.9425C16.528 10.6245 15.9315 12.1674 14.9387 13.3693L17.0858 15.5164C17.3299 15.7605 17.3299 16.1562 17.0858 16.4003C16.8417 16.6444 16.446 16.6444 16.2019 16.4003L14.0595 14.2578C12.8563 15.2732 11.3032 15.885 9.60721 15.885C5.78265 15.885 2.68555 12.775 2.68555 8.94333Z" fill="#0B7FEA"/>
</svg>
