<svg width="22" height="22" viewBox="0 0 22 22" fill="none" xmlns="http://www.w3.org/2000/svg">
<path fill-rule="evenodd" clip-rule="evenodd" d="M13.0891 1.97271C12.75 1.83337 12.3191 1.83337 11.4584 1.83337C10.5976 1.83337 10.1677 1.83337 9.82763 1.97271C9.37613 2.15807 9.01673 2.51516 8.82846 2.96546C8.74229 3.16987 8.7093 3.40912 8.69555 3.75654C8.68943 4.00826 8.61922 4.25426 8.49154 4.47128C8.36386 4.68831 8.18294 4.86918 7.96588 4.99679C7.74473 5.11972 7.49613 5.18484 7.24311 5.18612C6.99009 5.1874 6.74085 5.1248 6.51846 5.00412C6.20863 4.84096 5.98405 4.75112 5.76221 4.72179C5.27689 4.65807 4.78603 4.78852 4.39638 5.08479C4.10488 5.30662 3.88946 5.67696 3.45955 6.41671C3.02871 7.15646 2.81421 7.52587 2.76563 7.88796C2.70146 8.37012 2.83346 8.85779 3.1323 9.24371C3.26796 9.41971 3.45955 9.56729 3.75563 9.75246C4.19288 10.0247 4.47338 10.4885 4.47338 11C4.47338 11.5115 4.19288 11.9754 3.75655 12.2467C3.45955 12.4328 3.26796 12.5804 3.13138 12.7564C2.98387 12.947 2.8756 13.1649 2.81282 13.3976C2.75004 13.6303 2.734 13.8732 2.76563 14.1121C2.81421 14.4733 3.02871 14.8436 3.45955 15.5834C3.89038 16.3231 4.10488 16.6925 4.39638 16.9153C4.78505 17.2114 5.27638 17.3415 5.76221 17.2783C5.98405 17.249 6.20863 17.1591 6.51846 16.996C6.74096 16.8751 6.99038 16.8124 7.24357 16.8137C7.49676 16.815 7.74553 16.8802 7.9668 17.0033C8.4123 17.26 8.6763 17.732 8.69555 18.2435C8.7093 18.5919 8.74229 18.8302 8.82846 19.0346C9.01546 19.4838 9.37479 19.8413 9.82763 20.0274C10.1668 20.1667 10.5976 20.1667 11.4584 20.1667C12.3191 20.1667 12.75 20.1667 13.0891 20.0274C13.5406 19.842 13.9 19.4849 14.0883 19.0346C14.1745 18.8302 14.2075 18.5919 14.2212 18.2435C14.2395 17.732 14.5045 17.259 14.9509 17.0033C15.172 16.8804 15.4206 16.8152 15.6736 16.814C15.9267 16.8127 16.1759 16.8753 16.3983 16.996C16.7081 17.1591 16.9327 17.249 17.1545 17.2783C17.6404 17.3425 18.1317 17.2114 18.5204 16.9153C18.8119 16.6935 19.0273 16.3231 19.4572 15.5834C19.888 14.8436 20.1025 14.4742 20.1511 14.1121C20.1826 13.8731 20.1664 13.6303 20.1035 13.3975C20.0406 13.1648 19.9321 12.9469 19.7845 12.7564C19.6488 12.5804 19.4572 12.4328 19.1611 12.2476C18.7239 11.9754 18.4434 11.5115 18.4434 11C18.4434 10.4885 18.7239 10.0247 19.1602 9.75337C19.4572 9.56729 19.6488 9.41971 19.7854 9.24371C19.9329 9.05309 20.0412 8.83514 20.1039 8.60244C20.1667 8.36973 20.1828 8.1269 20.1511 7.88796C20.1025 7.52679 19.888 7.15646 19.4572 6.41671C19.0264 5.67696 18.8119 5.30754 18.5204 5.08479C18.1307 4.78852 17.6399 4.65807 17.1545 4.72179C16.9327 4.75112 16.7081 4.84096 16.3983 5.00412C16.1758 5.12497 15.9264 5.18766 15.6732 5.18637C15.42 5.18509 15.1712 5.11988 14.95 4.99679C14.7331 4.86906 14.5523 4.68814 14.4248 4.47113C14.2973 4.25412 14.2272 4.00817 14.2212 3.75654C14.2075 3.40821 14.1745 3.16987 14.0883 2.96546C13.9951 2.74247 13.8589 2.54002 13.6875 2.36968C13.516 2.19934 13.3127 2.06445 13.0891 1.97271ZM11.4584 13.75C12.9892 13.75 14.2295 12.519 14.2295 11C14.2295 9.48112 12.9883 8.25004 11.4584 8.25004C9.92755 8.25004 8.6873 9.48112 8.6873 11C8.6873 12.519 9.92846 13.75 11.4584 13.75Z" fill="#6B6B6E"/>
</svg>
