<svg width="24" height="24" viewBox="0 0 24 24" fill="none" xmlns="http://www.w3.org/2000/svg">
<path fill-rule="evenodd" clip-rule="evenodd" d="M11.606 2.07991C11.7305 2.02654 11.8645 1.99902 12 1.99902C12.1355 1.99902 12.2695 2.02654 12.394 2.07991L18.788 4.82091C19.1478 4.97517 19.4545 5.23165 19.6699 5.55855C19.8854 5.88545 20.0002 6.2684 20 6.65991V13.5199C19.9999 14.7538 19.6736 15.9658 19.0542 17.033C18.4348 18.1002 17.5443 18.9847 16.473 19.5969L12.496 21.8689C12.3449 21.9552 12.174 22.0006 12 22.0006C11.826 22.0006 11.6551 21.9552 11.504 21.8689L7.527 19.5969C6.45537 18.9845 5.5647 18.0997 4.94529 17.0321C4.32589 15.9645 3.99977 14.7522 4 13.5179V6.65991C4.00004 6.26857 4.1149 5.88584 4.33033 5.55913C4.54576 5.23243 4.85231 4.9761 5.212 4.82191L11.606 2.07991ZM10.707 9.29291C10.5184 9.11076 10.2658 9.00996 10.0036 9.01224C9.7414 9.01452 9.49059 9.11969 9.30518 9.30509C9.11977 9.4905 9.0146 9.74132 9.01233 10.0035C9.01005 10.2657 9.11084 10.5183 9.293 10.7069L10.586 11.9999L9.293 13.2929C9.19749 13.3852 9.12131 13.4955 9.0689 13.6175C9.01649 13.7395 8.9889 13.8707 8.98775 14.0035C8.9866 14.1363 9.0119 14.268 9.06218 14.3909C9.11246 14.5138 9.18671 14.6254 9.28061 14.7193C9.3745 14.8132 9.48615 14.8875 9.60905 14.9377C9.73194 14.988 9.86362 15.0133 9.9964 15.0122C10.1292 15.011 10.2604 14.9834 10.3824 14.931C10.5044 14.8786 10.6148 14.8024 10.707 14.7069L12 13.4139L13.293 14.7069C13.4816 14.8891 13.7342 14.9899 13.9964 14.9876C14.2586 14.9853 14.5094 14.8801 14.6948 14.6947C14.8802 14.5093 14.9854 14.2585 14.9877 13.9963C14.99 13.7341 14.8892 13.4815 14.707 13.2929L13.414 11.9999L14.707 10.7069C14.8892 10.5183 14.99 10.2657 14.9877 10.0035C14.9854 9.74132 14.8802 9.4905 14.6948 9.30509C14.5094 9.11969 14.2586 9.01452 13.9964 9.01224C13.7342 9.00996 13.4816 9.11076 13.293 9.29291L12 10.5859L10.707 9.29291Z" fill="#17F247"/>
</svg>
