<svg width="20" height="20" viewBox="0 0 20 20" fill="none" xmlns="http://www.w3.org/2000/svg">
<g clip-path="url(#clip0_3063_836)">
<path d="M9.9995 16.3C10.2382 16.3 10.4671 16.3948 10.6359 16.5636C10.8047 16.7324 10.8996 16.9613 10.8996 17.2V18.1C10.8996 18.3387 10.8047 18.5676 10.6359 18.7364C10.4671 18.9052 10.2382 19 9.9995 19C9.76079 19 9.53186 18.9052 9.36307 18.7364C9.19428 18.5676 9.09945 18.3387 9.09945 18.1V17.2C9.09945 16.9613 9.19428 16.7324 9.36307 16.5636C9.53186 16.3948 9.76079 16.3 9.9995 16.3ZM15.7274 14.455L16.3638 15.0913C16.5277 15.261 16.6184 15.4884 16.6164 15.7244C16.6143 15.9603 16.5197 16.1861 16.3528 16.3529C16.1859 16.5198 15.9602 16.6145 15.7242 16.6165C15.4882 16.6186 15.2608 16.5278 15.0911 16.3639L14.4547 15.7276C14.2908 15.5579 14.2001 15.3305 14.2021 15.0945C14.2042 14.8586 14.2988 14.6328 14.4657 14.466C14.6326 14.2991 14.8583 14.2044 15.0943 14.2024C15.3303 14.2003 15.5577 14.2911 15.7274 14.455ZM4.27158 14.455C4.43356 14.2936 4.6509 14.1999 4.87946 14.1929C5.10803 14.1859 5.33069 14.2662 5.5022 14.4174C5.67372 14.5687 5.78124 14.7795 5.80293 15.0071C5.82461 15.2348 5.75884 15.4621 5.61896 15.643L5.54425 15.7276L4.90792 16.3639C4.74595 16.5253 4.52861 16.619 4.30004 16.626C4.07147 16.633 3.84882 16.5527 3.6773 16.4015C3.50578 16.2502 3.39826 16.0394 3.37658 15.8118C3.35489 15.5841 3.42067 15.3568 3.56054 15.1759L3.63525 15.0913L4.27158 14.455ZM9.9995 4.6C11.4317 4.6 12.8053 5.16893 13.8181 6.18162C14.8308 7.19432 15.3998 8.56783 15.3998 10C15.3998 11.4322 14.8308 12.8057 13.8181 13.8184C12.8053 14.8311 11.4317 15.4 9.9995 15.4C8.56725 15.4 7.19367 14.8311 6.18091 13.8184C5.16816 12.8057 4.5992 11.4322 4.5992 10C4.5992 8.56783 5.16816 7.19432 6.18091 6.18162C7.19367 5.16893 8.56725 4.6 9.9995 4.6ZM9.9995 6.4C9.04467 6.4 8.12894 6.77928 7.45378 7.45442C6.77861 8.12955 6.3993 9.04522 6.3993 10C6.3993 10.9548 6.77861 11.8705 7.45378 12.5456C8.12894 13.2207 9.04467 13.6 9.9995 13.6C10.9543 13.6 11.8701 13.2207 12.5452 12.5456C13.2204 11.8705 13.5997 10.9548 13.5997 10C13.5997 9.04522 13.2204 8.12955 12.5452 7.45442C11.8701 6.77928 10.9543 6.4 9.9995 6.4ZM2.7991 9.1C3.02851 9.10025 3.24916 9.18809 3.41597 9.34556C3.58278 9.50304 3.68316 9.71826 3.69661 9.94726C3.71005 10.1763 3.63554 10.4017 3.4883 10.5776C3.34106 10.7536 3.13221 10.8666 2.90441 10.8937L2.7991 10.9H1.89905C1.66965 10.8997 1.449 10.8119 1.28219 10.6544C1.11538 10.497 1.01499 10.2817 1.00155 10.0527C0.988104 9.82375 1.06261 9.59826 1.20985 9.42235C1.35709 9.24644 1.56595 9.13339 1.79375 9.1063L1.89905 9.1H2.7991ZM18.1 9.1C18.3387 9.1 18.5676 9.19482 18.7364 9.3636C18.9052 9.53239 19 9.7613 19 10C19 10.2387 18.9052 10.4676 18.7364 10.6364C18.5676 10.8052 18.3387 10.9 18.1 10.9H17.1999C16.9612 10.9 16.7323 10.8052 16.5635 10.6364C16.3947 10.4676 16.2999 10.2387 16.2999 10C16.2999 9.7613 16.3947 9.53239 16.5635 9.3636C16.7323 9.19482 16.9612 9.1 17.1999 9.1H18.1ZM3.63525 3.6361C3.79023 3.48114 3.99643 3.38805 4.21517 3.3743C4.4339 3.36055 4.65014 3.42707 4.82331 3.5614L4.90792 3.6361L5.54425 4.2724C5.70568 4.43436 5.7994 4.65169 5.80637 4.88025C5.81335 5.1088 5.73307 5.33144 5.58183 5.50295C5.43059 5.67446 5.21974 5.78197 4.9921 5.80366C4.76445 5.82534 4.53709 5.75957 4.35619 5.6197L4.27158 5.545L3.63525 4.9087C3.46652 4.73992 3.37173 4.51105 3.37173 4.2724C3.37173 4.03375 3.46652 3.80487 3.63525 3.6361ZM16.3638 3.6361C16.5325 3.80487 16.6273 4.03375 16.6273 4.2724C16.6273 4.51105 16.5325 4.73992 16.3638 4.9087L15.7274 5.545C15.6444 5.63096 15.5451 5.69952 15.4353 5.74669C15.3255 5.79386 15.2074 5.81869 15.0878 5.81973C14.9683 5.82076 14.8498 5.79799 14.7392 5.75274C14.6286 5.70749 14.5281 5.64066 14.4436 5.55616C14.3591 5.47165 14.2923 5.37117 14.247 5.26056C14.2017 5.14995 14.179 5.03144 14.18 4.91194C14.181 4.79244 14.2059 4.67434 14.253 4.56454C14.3002 4.45473 14.3688 4.35542 14.4547 4.2724L15.0911 3.6361C15.2599 3.46738 15.4888 3.37259 15.7274 3.37259C15.9661 3.37259 16.195 3.46738 16.3638 3.6361ZM9.9995 1C10.2382 1 10.4671 1.09482 10.6359 1.2636C10.8047 1.43239 10.8996 1.66131 10.8996 1.9V2.8C10.8996 3.03869 10.8047 3.26761 10.6359 3.4364C10.4671 3.60518 10.2382 3.7 9.9995 3.7C9.76079 3.7 9.53186 3.60518 9.36307 3.4364C9.19428 3.26761 9.09945 3.03869 9.09945 2.8V1.9C9.09945 1.66131 9.19428 1.43239 9.36307 1.2636C9.53186 1.09482 9.76079 1 9.9995 1Z" fill="#787879"/>
</g>
<defs>
<clipPath id="clip0_3063_836">
<rect width="20" height="20" fill="white"/>
</clipPath>
</defs>
</svg>
