<svg width="25" height="24" viewBox="0 0 25 24" fill="none" xmlns="http://www.w3.org/2000/svg">
<path d="M12.75 2C7.23 2 2.75 6.48 2.75 12C2.75 17.52 7.23 22 12.75 22C18.27 22 22.75 17.52 22.75 12C22.75 6.48 18.27 2 12.75 2ZM17.39 8.8C17.24 10.38 16.59 14.22 16.26 15.99C16.12 16.74 15.84 16.99 15.58 17.02C15 17.07 14.56 16.64 14 16.27C13.12 15.69 12.62 15.33 11.77 14.77C10.78 14.12 11.42 13.76 11.99 13.18C12.14 13.03 14.7 10.7 14.75 10.49C14.7569 10.4582 14.756 10.4252 14.7473 10.3938C14.7386 10.3624 14.7224 10.3337 14.7 10.31C14.64 10.26 14.56 10.28 14.49 10.29C14.4 10.31 13 11.24 10.27 13.08C9.87 13.35 9.51 13.49 9.19 13.48C8.83 13.47 8.15 13.28 7.64 13.11C7.01 12.91 6.52 12.8 6.56 12.45C6.58 12.27 6.83 12.09 7.3 11.9C10.22 10.63 12.16 9.79 13.13 9.39C15.91 8.23 16.48 8.03 16.86 8.03C16.94 8.03 17.13 8.05 17.25 8.15C17.35 8.23 17.38 8.34 17.39 8.42C17.38 8.48 17.4 8.66 17.39 8.8Z" fill="#0B7FEA"/>
</svg>
