<svg width="17" height="15" viewBox="0 0 17 15" fill="none" xmlns="http://www.w3.org/2000/svg">
<path d="M8.5 1C9.36195 1 10.1886 1.34241 10.7981 1.9519C11.4076 2.5614 11.75 3.38805 11.75 4.25C11.75 5.11195 11.4076 5.9386 10.7981 6.5481C10.1886 7.15759 9.36195 7.5 8.5 7.5C7.63805 7.5 6.8114 7.15759 6.2019 6.5481C5.59241 5.9386 5.25 5.11195 5.25 4.25C5.25 3.38805 5.59241 2.5614 6.2019 1.9519C6.8114 1.34241 7.63805 1 8.5 1ZM8.5 9.125C12.0913 9.125 15 10.5794 15 12.375V14H2V12.375C2 10.5794 4.90875 9.125 8.5 9.125Z" fill="#F4F4F4"/>
</svg>
