<svg width="25" height="24" viewBox="0 0 25 24" fill="none" xmlns="http://www.w3.org/2000/svg">
<path d="M7 11C7.21667 11 7.396 10.929 7.538 10.787C7.68 10.645 7.75067 10.466 7.75 10.25V9.75C7.75 9.53333 7.679 9.35433 7.537 9.213C7.395 9.07167 7.216 9.00067 7 9C6.784 8.99933 6.605 9.07033 6.463 9.213C6.321 9.35567 6.25 9.53467 6.25 9.75V10.25C6.25 10.4667 6.321 10.646 6.463 10.788C6.605 10.93 6.784 11.0007 7 11ZM9.5 13C9.71667 13 9.896 12.929 10.038 12.787C10.18 12.645 10.2507 12.466 10.25 12.25V7.75C10.25 7.53333 10.179 7.35433 10.037 7.213C9.895 7.07167 9.716 7.00067 9.5 7C9.284 6.99933 9.105 7.07033 8.963 7.213C8.821 7.35567 8.75 7.53467 8.75 7.75V12.25C8.75 12.4667 8.821 12.646 8.963 12.788C9.105 12.93 9.284 13.0007 9.5 13ZM12.25 15C12.4667 15 12.646 14.929 12.788 14.787C12.93 14.645 13.0007 14.466 13 14.25V5.75C13 5.53333 12.929 5.35433 12.787 5.213C12.645 5.07167 12.466 5.00067 12.25 5C12.034 4.99933 11.855 5.07033 11.713 5.213C11.571 5.35567 11.5 5.53467 11.5 5.75V14.25C11.5 14.4667 11.571 14.646 11.713 14.788C11.855 14.93 12.034 15.0007 12.25 15ZM15 13C15.2167 13 15.396 12.929 15.538 12.787C15.68 12.645 15.7507 12.466 15.75 12.25V7.75C15.75 7.53333 15.679 7.35433 15.537 7.213C15.395 7.07167 15.216 7.00067 15 7C14.784 6.99933 14.605 7.07033 14.463 7.213C14.321 7.35567 14.25 7.53467 14.25 7.75V12.25C14.25 12.4667 14.321 12.646 14.463 12.788C14.605 12.93 14.784 13.0007 15 13ZM17.5 11C17.7167 11 17.896 10.929 18.038 10.787C18.18 10.645 18.2507 10.466 18.25 10.25V9.75C18.25 9.53333 18.179 9.35433 18.037 9.213C17.895 9.07167 17.716 9.00067 17.5 9C17.284 8.99933 17.105 9.07033 16.963 9.213C16.821 9.35567 16.75 9.53467 16.75 9.75V10.25C16.75 10.4667 16.821 10.646 16.963 10.788C17.105 10.93 17.284 11.0007 17.5 11ZM6.25 18L3.95 20.3C3.63334 20.6167 3.27067 20.6877 2.862 20.513C2.45333 20.3383 2.24933 20.0257 2.25 19.575V4C2.25 3.45 2.446 2.97933 2.838 2.588C3.23 2.19667 3.70067 2.00067 4.25 2H20.25C20.8 2 21.271 2.196 21.663 2.588C22.055 2.98 22.2507 3.45067 22.25 4V16C22.25 16.55 22.0543 17.021 21.663 17.413C21.2717 17.805 20.8007 18.0007 20.25 18H6.25Z" fill="#17F247"/>
</svg>
