<svg width="16" height="16" viewBox="0 0 16 16" fill="none" xmlns="http://www.w3.org/2000/svg">
<path d="M16 3.52941C15.4111 3.79706 14.7763 3.97294 14.1185 4.05706C14.7916 3.65176 15.3117 3.00941 15.5564 2.23706C14.9216 2.61941 14.218 2.88706 13.4761 3.04C12.8719 2.38235 12.0229 2 11.0593 2C9.26195 2 7.7935 3.46824 7.7935 5.28059C7.7935 5.54059 7.82409 5.79294 7.87763 6.03C5.15488 5.89235 2.7304 4.58471 1.11663 2.60412C0.833652 3.08588 0.67304 3.65176 0.67304 4.24824C0.67304 5.38765 1.24665 6.39706 2.13384 6.97059C1.59082 6.97059 1.08604 6.81765 0.642448 6.58824V6.61118C0.642448 8.20176 1.77438 9.53235 3.27342 9.83059C2.79223 9.96283 2.28684 9.98116 1.79732 9.88412C2.00505 10.536 2.41188 11.1064 2.96062 11.5152C3.50937 11.9239 4.17243 12.1505 4.8566 12.1629C3.69688 13.081 2.25928 13.5772 0.780115 13.57C0.520077 13.57 0.260038 13.5547 0 13.5241C1.45316 14.4571 3.18164 15 5.03251 15C11.0593 15 14.3709 9.99882 14.3709 5.66294C14.3709 5.51765 14.3709 5.38 14.3633 5.23471C15.0057 4.77588 15.5564 4.19471 16 3.52941Z" fill="#0B7FEA"/>
</svg>
