<svg width="16" height="16" viewBox="0 0 16 16" fill="none" xmlns="http://www.w3.org/2000/svg">
<path fill-rule="evenodd" clip-rule="evenodd" d="M14.2417 10.0098C14.2417 10.0098 15.5353 11.4065 15.8553 12.0528C15.8615 12.0621 15.8664 12.0725 15.8697 12.0834C16.0001 12.3222 16.0321 12.5094 15.9681 12.6475C15.8601 12.8758 15.4945 12.9904 15.3705 13H13.0841C12.9249 13 12.5937 12.9545 12.1905 12.6502C11.8825 12.4149 11.5761 12.0275 11.2793 11.6488C10.8361 11.0864 10.4529 10.5984 10.0649 10.5984C10.0159 10.5983 9.9672 10.6071 9.92088 10.6246C9.62728 10.7261 9.25448 11.1835 9.25448 12.4018C9.25448 12.7831 8.97928 13 8.78648 13H7.73928C7.38248 13 5.52488 12.8636 3.87768 10.9648C1.85927 8.6402 0.0464721 3.97691 0.0288721 3.93581C-0.083928 3.63407 0.152872 3.46965 0.408872 3.46965H2.71767C3.02728 3.46965 3.12808 3.6743 3.19848 3.85797C3.28008 4.06874 3.58248 4.91184 4.07848 5.85902C4.88168 7.40003 5.37528 8.02711 5.76968 8.02711C5.84378 8.02735 5.91662 8.00623 5.98088 7.96589C6.49608 7.65629 6.40008 5.64474 6.37608 5.23019C6.37608 5.14973 6.37528 4.33199 6.11128 3.93668C5.92248 3.65331 5.60088 3.54312 5.40648 3.50289C5.45848 3.42068 5.56888 3.29473 5.71048 3.2204C6.06328 3.02799 6.70088 3 7.33368 3H7.68488C8.37128 3.0105 8.54888 3.0586 8.79848 3.12769C9.30088 3.25888 9.31048 3.61483 9.26648 4.82701C9.25368 5.17334 9.24008 5.56341 9.24008 6.02256C9.24008 6.12052 9.23608 6.22984 9.23608 6.34091C9.22088 6.96274 9.20088 7.66329 9.60248 7.95102C9.65457 7.9865 9.71472 8.00528 9.77608 8.00525C9.91528 8.00525 10.3321 8.00525 11.4625 5.88438C11.9585 4.9477 12.3425 3.8431 12.3689 3.76001C12.3913 3.71366 12.4585 3.58335 12.5401 3.53087C12.5981 3.49711 12.6632 3.48024 12.7289 3.4819H15.4449C15.7409 3.4819 15.9417 3.53087 15.9809 3.65331C16.0465 3.85185 15.9681 4.45793 14.7281 6.29106C14.5193 6.59629 14.3361 6.86042 14.1753 7.09131C13.0513 8.70404 13.0513 8.78538 14.2417 10.0098Z" fill="#C3C3C3"/>
</svg>
