<svg width="20" height="20" viewBox="0 0 20 20" fill="none" xmlns="http://www.w3.org/2000/svg">
<path d="M10.244 2C10.778 2.003 12.114 2.016 13.534 2.073L14.038 2.095C15.467 2.162 16.895 2.278 17.604 2.475C18.549 2.741 19.291 3.515 19.542 4.497C19.942 6.057 19.992 9.099 19.998 9.836L19.999 9.988V10.162C19.992 10.899 19.942 13.942 19.542 15.501C19.288 16.486 18.545 17.261 17.604 17.523C16.895 17.72 15.467 17.836 14.038 17.903L13.534 17.926C12.114 17.982 10.778 17.996 10.244 17.998L10.009 17.999H9.754C8.624 17.992 3.898 17.941 2.394 17.523C1.45 17.257 0.707 16.483 0.456 15.501C0.0560001 13.941 0.006 10.899 0 10.162V9.836C0.006 9.099 0.0560001 6.056 0.456 4.497C0.71 3.512 1.453 2.737 2.395 2.476C3.898 2.057 8.625 2.006 9.755 2H10.244ZM7.999 6.5V13.5L13.999 10L7.999 6.5Z" fill="#0B7FEA"/>
</svg>
