<svg width="182" height="19" viewBox="0 0 182 19" fill="none" xmlns="http://www.w3.org/2000/svg">
<g clip-path="url(#clip0_1264_429)">
<path d="M165.853 18.4386V0.208008H173.744C175.376 0.208008 176.783 0.477125 177.963 1.01536C179.144 1.53623 180.055 2.2915 180.698 3.28116C181.34 4.27082 181.662 5.45146 181.662 6.82309C181.662 8.17736 181.34 9.34933 180.698 10.339C180.055 11.3113 179.144 12.0579 177.963 12.5787C176.783 13.0996 175.376 13.36 173.744 13.36H168.197L170.072 11.5109V18.4386H165.853ZM177.442 18.4386L172.885 11.8235H177.39L182 18.4386H177.442ZM170.072 11.9797L168.197 10.0004H173.51C174.812 10.0004 175.784 9.72262 176.427 9.16702C177.069 8.59406 177.39 7.81275 177.39 6.82309C177.39 5.81607 177.069 5.03476 176.427 4.47917C175.784 3.92357 174.812 3.64577 173.51 3.64577H168.197L170.072 1.64041V11.9797Z" fill="#0B7FEA"/>
<path d="M152.261 7.55231H161.038V10.8338H152.261V7.55231ZM152.573 15.0529H162.496V18.4386H148.38V0.208008H162.157V3.59368H152.573V15.0529Z" fill="#0B7FEA"/>
<path d="M129.56 18.4386V0.208008H137.451C139.083 0.208008 140.489 0.477125 141.67 1.01536C142.851 1.53623 143.762 2.2915 144.404 3.28116C145.047 4.27082 145.368 5.45146 145.368 6.82309C145.368 8.17736 145.047 9.34933 144.404 10.339C143.762 11.3286 142.851 12.0926 141.67 12.6308C140.489 13.1517 139.083 13.4121 137.451 13.4121H131.903L133.779 11.5109V18.4386H129.56ZM133.779 11.9797L131.903 9.97437H137.216C138.519 9.97437 139.491 9.69658 140.133 9.14098C140.776 8.58538 141.097 7.81275 141.097 6.82309C141.097 5.81607 140.776 5.03476 140.133 4.47917C139.491 3.92357 138.519 3.64577 137.216 3.64577H131.903L133.779 1.64041V11.9797Z" fill="#0B7FEA"/>
<path d="M115.967 7.55231H124.744V10.8338H115.967V7.55231ZM116.28 15.0529H126.203V18.4386H112.087V0.208008H125.864V3.59368H116.28V15.0529Z" fill="#0B7FEA"/>
<path d="M98.4948 7.55231H107.271V10.8338H98.4948V7.55231ZM98.8073 15.0529H108.73V18.4386H94.6143V0.208008H108.391V3.59368H98.8073V15.0529Z" fill="#0B7FEA"/>
<path d="M79.1123 14.2716L78.8779 9.40141L87.6025 0.208008H92.2903L84.4252 8.67219L82.0812 11.1724L79.1123 14.2716ZM75.3359 18.4386V0.208008H79.529V18.4386H75.3359ZM87.8108 18.4386L81.326 10.4952L84.0866 7.50023L92.7331 18.4386H87.8108Z" fill="#0B7FEA"/>
<path d="M62.2436 18.4386V2.4738H55.9932V0.208008H71.0724V2.4738H64.822V18.4386H62.2436Z" fill="white"/>
<path d="M45.2352 18.6472C43.8462 18.6472 42.5527 18.4129 41.3547 17.9441C40.174 17.4753 39.1496 16.8242 38.2815 15.9908C37.4134 15.14 36.7362 14.1504 36.2501 13.0218C35.7639 11.8933 35.5209 10.6605 35.5209 9.32362C35.5209 7.98672 35.7639 6.75398 36.2501 5.62543C36.7362 4.49687 37.4134 3.51589 38.2815 2.68249C39.1496 1.83173 40.174 1.17196 41.3547 0.703177C42.5353 0.234393 43.8288 0 45.2352 0C46.6241 0 47.9003 0.234393 49.0636 0.703177C50.2442 1.1546 51.2686 1.80569 52.1367 2.65645C53.0222 3.48985 53.6993 4.47082 54.1681 5.59938C54.6543 6.72794 54.8973 7.96935 54.8973 9.32362C54.8973 10.6779 54.6543 11.9193 54.1681 13.0479C53.6993 14.1764 53.0222 15.1661 52.1367 16.0168C51.2686 16.8502 50.2442 17.5013 49.0636 17.9701C47.9003 18.4215 46.6241 18.6472 45.2352 18.6472ZM45.2352 16.3294C46.2422 16.3294 47.1711 16.1557 48.0218 15.8085C48.8899 15.4612 49.6365 14.9751 50.2616 14.35C50.904 13.7076 51.3988 12.9611 51.7461 12.1103C52.1107 11.2595 52.293 10.3306 52.293 9.32362C52.293 8.3166 52.1107 7.38771 51.7461 6.53695C51.3988 5.68619 50.904 4.94829 50.2616 4.32324C49.6365 3.68083 48.8899 3.186 48.0218 2.83876C47.1711 2.49151 46.2422 2.31788 45.2352 2.31788C44.2108 2.31788 43.2645 2.49151 42.3964 2.83876C41.5456 3.186 40.7991 3.68083 40.1566 4.32324C39.5142 4.94829 39.0107 5.68619 38.6461 6.53695C38.2989 7.38771 38.1252 8.3166 38.1252 9.32362C38.1252 10.3306 38.2989 11.2595 38.6461 12.1103C39.0107 12.9611 39.5142 13.7076 40.1566 14.35C40.7991 14.9751 41.5456 15.4612 42.3964 15.8085C43.2645 16.1557 44.2108 16.3294 45.2352 16.3294Z" fill="white"/>
<path d="M23.3626 18.6472C21.9736 18.6472 20.6801 18.4129 19.4821 17.9441C18.3014 17.4753 17.2771 16.8242 16.4089 15.9908C15.5408 15.14 14.8637 14.1504 14.3775 13.0218C13.8914 11.8933 13.6483 10.6605 13.6483 9.32362C13.6483 7.98672 13.8914 6.75398 14.3775 5.62543C14.8637 4.49687 15.5408 3.51589 16.4089 2.68249C17.2771 1.83173 18.3014 1.17196 19.4821 0.703177C20.6627 0.234393 21.9562 0 23.3626 0C24.7516 0 26.0277 0.234393 27.191 0.703177C28.3717 1.1546 29.396 1.80569 30.2642 2.65645C31.1496 3.48985 31.8268 4.47082 32.2956 5.59938C32.7817 6.72794 33.0248 7.96935 33.0248 9.32362C33.0248 10.6779 32.7817 11.9193 32.2956 13.0479C31.8268 14.1764 31.1496 15.1661 30.2642 16.0168C29.396 16.8502 28.3717 17.5013 27.191 17.9701C26.0277 18.4215 24.7516 18.6472 23.3626 18.6472ZM23.3626 16.3294C24.3696 16.3294 25.2985 16.1557 26.1493 15.8085C27.0174 15.4612 27.764 14.9751 28.389 14.35C29.0314 13.7076 29.5263 12.9611 29.8735 12.1103C30.2381 11.2595 30.4204 10.3306 30.4204 9.32362C30.4204 8.3166 30.2381 7.38771 29.8735 6.53695C29.5263 5.68619 29.0314 4.94829 28.389 4.32324C27.764 3.68083 27.0174 3.186 26.1493 2.83876C25.2985 2.49151 24.3696 2.31788 23.3626 2.31788C22.3382 2.31788 21.392 2.49151 20.5238 2.83876C19.6731 3.186 18.9265 3.68083 18.2841 4.32324C17.6417 4.94829 17.1382 5.68619 16.7736 6.53695C16.4263 7.38771 16.2527 8.3166 16.2527 9.32362C16.2527 10.3306 16.4263 11.2595 16.7736 12.1103C17.1382 12.9611 17.6417 13.7076 18.2841 14.35C18.9265 14.9751 19.6731 15.4612 20.5238 15.8085C21.392 16.1557 22.3382 16.3294 23.3626 16.3294Z" fill="white"/>
<path d="M0 18.4386V0.208008H2.60436V16.1728H12.4749V18.4386H0Z" fill="white"/>
</g>
<defs>
<clipPath id="clip0_1264_429">
<rect width="182" height="19" fill="white"/>
</clipPath>
</defs>
</svg>
