<svg width="182" height="19" viewBox="0 0 182 19" fill="none" xmlns="http://www.w3.org/2000/svg">
<g clip-path="url(#clip0_1264_235)">
<path d="M165.854 18.4386V0.208008H173.745C175.377 0.208008 176.783 0.477125 177.964 1.01536C179.144 1.53623 180.056 2.2915 180.698 3.28116C181.341 4.27082 181.662 5.45146 181.662 6.82309C181.662 8.17736 181.341 9.34933 180.698 10.339C180.056 11.3113 179.144 12.0579 177.964 12.5787C176.783 13.0996 175.377 13.36 173.745 13.36H168.197L170.073 11.5109V18.4386H165.854ZM177.443 18.4386L172.885 11.8235H177.391L182.001 18.4386H177.443ZM170.073 11.9797L168.197 10.0004H173.51C174.813 10.0004 175.785 9.72262 176.427 9.16702C177.07 8.59406 177.391 7.81275 177.391 6.82309C177.391 5.81607 177.07 5.03476 176.427 4.47917C175.785 3.92357 174.813 3.64577 173.51 3.64577H168.197L170.073 1.64041V11.9797Z" fill="#0B7FEA"/>
<path d="M152.261 7.55231H161.038V10.8338H152.261V7.55231ZM152.574 15.0529H162.497V18.4386H148.381V0.208008H162.158V3.59368H152.574V15.0529Z" fill="#0B7FEA"/>
<path d="M129.56 18.4386V0.208008H137.451C139.083 0.208008 140.489 0.477125 141.67 1.01536C142.851 1.53623 143.762 2.2915 144.404 3.28116C145.047 4.27082 145.368 5.45146 145.368 6.82309C145.368 8.17736 145.047 9.34933 144.404 10.339C143.762 11.3286 142.851 12.0926 141.67 12.6308C140.489 13.1517 139.083 13.4121 137.451 13.4121H131.903L133.779 11.5109V18.4386H129.56ZM133.779 11.9797L131.903 9.97437H137.216C138.519 9.97437 139.491 9.69658 140.133 9.14098C140.776 8.58538 141.097 7.81275 141.097 6.82309C141.097 5.81607 140.776 5.03476 140.133 4.47917C139.491 3.92357 138.519 3.64577 137.216 3.64577H131.903L133.779 1.64041V11.9797Z" fill="#0B7FEA"/>
<path d="M115.967 7.55231H124.744V10.8338H115.967V7.55231ZM116.28 15.0529H126.203V18.4386H112.087V0.208008H125.864V3.59368H116.28V15.0529Z" fill="#0B7FEA"/>
<path d="M98.4948 7.55231H107.271V10.8338H98.4948V7.55231ZM98.8073 15.0529H108.73V18.4386H94.6143V0.208008H108.391V3.59368H98.8073V15.0529Z" fill="#0B7FEA"/>
<path d="M79.1123 14.2716L78.8779 9.40141L87.6025 0.208008H92.2903L84.4252 8.67219L82.0812 11.1724L79.1123 14.2716ZM75.3359 18.4386V0.208008H79.529V18.4386H75.3359ZM87.8108 18.4386L81.326 10.4952L84.0866 7.50023L92.7331 18.4386H87.8108Z" fill="#0B7FEA"/>
<path d="M62.2436 18.4386V2.4738H55.9932V0.208008H71.0724V2.4738H64.822V18.4386H62.2436Z" fill="#444444"/>
<path d="M45.2348 18.6472C43.8458 18.6472 42.5523 18.4129 41.3543 17.9441C40.1736 17.4753 39.1493 16.8242 38.2811 15.9908C37.413 15.14 36.7359 14.1504 36.2497 13.0218C35.7636 11.8933 35.5205 10.6605 35.5205 9.32362C35.5205 7.98672 35.7636 6.75398 36.2497 5.62543C36.7359 4.49687 37.413 3.51589 38.2811 2.68249C39.1493 1.83173 40.1736 1.17196 41.3543 0.703177C42.5349 0.234393 43.8284 0 45.2348 0C46.6238 0 47.8999 0.234393 49.0632 0.703177C50.2438 1.1546 51.2682 1.80569 52.1364 2.65645C53.0218 3.48985 53.699 4.47082 54.1678 5.59938C54.6539 6.72794 54.897 7.96935 54.897 9.32362C54.897 10.6779 54.6539 11.9193 54.1678 13.0479C53.699 14.1764 53.0218 15.1661 52.1364 16.0168C51.2682 16.8502 50.2438 17.5013 49.0632 17.9701C47.8999 18.4215 46.6238 18.6472 45.2348 18.6472ZM45.2348 16.3294C46.2418 16.3294 47.1707 16.1557 48.0215 15.8085C48.8896 15.4612 49.6362 14.9751 50.2612 14.35C50.9036 13.7076 51.3984 12.9611 51.7457 12.1103C52.1103 11.2595 52.2926 10.3306 52.2926 9.32362C52.2926 8.3166 52.1103 7.38771 51.7457 6.53695C51.3984 5.68619 50.9036 4.94829 50.2612 4.32324C49.6362 3.68083 48.8896 3.186 48.0215 2.83876C47.1707 2.49151 46.2418 2.31788 45.2348 2.31788C44.2104 2.31788 43.2641 2.49151 42.396 2.83876C41.5453 3.186 40.7987 3.68083 40.1563 4.32324C39.5139 4.94829 39.0104 5.68619 38.6457 6.53695C38.2985 7.38771 38.1249 8.3166 38.1249 9.32362C38.1249 10.3306 38.2985 11.2595 38.6457 12.1103C39.0104 12.9611 39.5139 13.7076 40.1563 14.35C40.7987 14.9751 41.5453 15.4612 42.396 15.8085C43.2641 16.1557 44.2104 16.3294 45.2348 16.3294Z" fill="#444444"/>
<path d="M23.3627 18.6472C21.9737 18.6472 20.6802 18.4129 19.4822 17.9441C18.3016 17.4753 17.2772 16.8242 16.4091 15.9908C15.5409 15.14 14.8638 14.1504 14.3777 13.0218C13.8915 11.8933 13.6484 10.6605 13.6484 9.32362C13.6484 7.98672 13.8915 6.75398 14.3777 5.62543C14.8638 4.49687 15.5409 3.51589 16.4091 2.68249C17.2772 1.83173 18.3016 1.17196 19.4822 0.703177C20.6629 0.234393 21.9564 0 23.3627 0C24.7517 0 26.0278 0.234393 27.1911 0.703177C28.3718 1.1546 29.3962 1.80569 30.2643 2.65645C31.1498 3.48985 31.8269 4.47082 32.2957 5.59938C32.7818 6.72794 33.0249 7.96935 33.0249 9.32362C33.0249 10.6779 32.7818 11.9193 32.2957 13.0479C31.8269 14.1764 31.1498 15.1661 30.2643 16.0168C29.3962 16.8502 28.3718 17.5013 27.1911 17.9701C26.0278 18.4215 24.7517 18.6472 23.3627 18.6472ZM23.3627 16.3294C24.3697 16.3294 25.2986 16.1557 26.1494 15.8085C27.0175 15.4612 27.7641 14.9751 28.3891 14.35C29.0315 13.7076 29.5264 12.9611 29.8736 12.1103C30.2382 11.2595 30.4205 10.3306 30.4205 9.32362C30.4205 8.3166 30.2382 7.38771 29.8736 6.53695C29.5264 5.68619 29.0315 4.94829 28.3891 4.32324C27.7641 3.68083 27.0175 3.186 26.1494 2.83876C25.2986 2.49151 24.3697 2.31788 23.3627 2.31788C22.3383 2.31788 21.3921 2.49151 20.524 2.83876C19.6732 3.186 18.9266 3.68083 18.2842 4.32324C17.6418 4.94829 17.1383 5.68619 16.7737 6.53695C16.4264 7.38771 16.2528 8.3166 16.2528 9.32362C16.2528 10.3306 16.4264 11.2595 16.7737 12.1103C17.1383 12.9611 17.6418 13.7076 18.2842 14.35C18.9266 14.9751 19.6732 15.4612 20.524 15.8085C21.3921 16.1557 22.3383 16.3294 23.3627 16.3294Z" fill="#444444"/>
<path d="M0 18.4386V0.208008H2.60436V16.1728H12.4749V18.4386H0Z" fill="#444444"/>
</g>
<defs>
<clipPath id="clip0_1264_235">
<rect width="182" height="19" fill="white"/>
</clipPath>
</defs>
</svg>
